<svg width="207.9349853515625px" height="122.021240234375px" xmlns="http://www.w3.org/2000/svg" viewBox="146.03250732421876 13.9893798828125 207.9349853515625 122.021240234375" style="background: rgba(0, 0, 0, 0);" preserveAspectRatio="xMidYMid"><defs><linearGradient id="editing-outline-gradient" x1="-0.254709580222772" x2="1.2547095802227721" y1="-0.15605902899050716" y2="1.1560590289905073"><stop offset="0" stop-color="#ee4208"></stop><stop offset="1" stop-color="#4139ff"></stop></linearGradient><filter id="editing-outline" x="-100%" y="-100%" width="300%" height="300%"><feMorphology in="SourceGraphic" operator="dilate" radius="2" result="outline"></feMorphology><feComposite operator="out" in="outline" in2="SourceAlpha"></feComposite></filter></defs><g filter="url(#editing-outline)"><g transform="translate(182.99312043190002, 97.45718765258789)"><path d="M42.62-26.56L42.62-26.56L42.62-26.56Q42.62 0.70 13.06 0.70L13.06 0.70L13.06 0.70Q8.32 0.70 0.51-0.45L0.51-0.45L7.68-38.27L7.68-38.27Q8.19-40.83 8.51-42.30L8.51-42.30L8.51-42.30Q18.24-43.01 22.56-43.01L22.56-43.01L22.56-43.01Q26.88-43.01 30.85-42.11L30.85-42.11L30.85-42.11Q34.82-41.22 37.44-39.23L37.44-39.23L37.44-39.23Q42.62-35.33 42.62-26.56ZM29.44-28.93L29.44-28.93L29.44-28.93Q29.44-38.46 22.59-38.46L22.59-38.46L21.95-38.46L21.95-38.46Q21.63-38.46 21.31-38.40L21.31-38.40L14.72-4.03L14.72-4.03Q14.98-3.90 15.23-3.90L15.23-3.90L15.74-3.90L15.74-3.90Q18.11-3.90 20.58-5.38L20.58-5.38L20.58-5.38Q23.04-6.85 24.96-9.86L24.96-9.86L24.96-9.86Q29.44-16.83 29.44-28.93ZM51.33 0L43.97 0L55.55-42.24L68.93-42.24L71.87-18.11L83.78-42.24L94.98-42.24L96.13-10.62L96.13-10.62Q96.38-4.35 99.46-2.43L99.46-2.43L99.46-2.43Q98.75-1.15 96.70 0.06L96.70 0.06L96.70 0.06Q94.66 1.28 91.94 1.28L91.94 1.28L91.94 1.28Q89.22 1.28 87.62 0.51L87.62 0.51L87.62 0.51Q86.02-0.26 85.12-1.54L85.12-1.54L85.12-1.54Q83.52-3.84 83.52-8.26L83.52-8.26L83.52-28.03L70.91 0L62.98 0L58.50-28.74L51.33 0ZM107.33-31.17L107.33-31.17L107.33-31.17Q105.15-32.83 105.15-36.38L105.15-36.38L105.15-36.38Q105.15-39.94 107.49-41.79L107.49-41.79L107.49-41.79Q109.82-43.65 113.86-43.65L113.86-43.65L113.86-43.65Q116.42-43.65 122.50-42.75L122.50-42.75L126.85-42.11L126.85-42.11Q129.02-41.86 131.30-41.86L131.30-41.86L131.30-41.86Q133.57-41.86 135.10-42.82L135.10-42.82L135.10-42.82Q137.41-40.77 137.41-37.82L137.41-37.82L137.41-37.82Q137.41-34.88 134.78-32.77L134.78-32.77L134.78-32.77Q132.10-30.53 128.64-30.53L128.64-30.53L128.64-30.53Q126.98-30.53 124.29-30.98L124.29-30.98L124.29-30.98Q121.15-21.12 121.15-14.27L121.15-14.27L121.15-14.27Q121.15-7.42 124.61-3.84L124.61-3.84L124.61-3.84Q123.01-0.96 120.64 0.16L120.64 0.16L120.64 0.16Q118.27 1.28 114.72 1.28L114.72 1.28L114.72 1.28Q111.17 1.28 108.96-0.67L108.96-0.67L108.96-0.67Q106.75-2.62 106.75-6.66L106.75-6.66L106.75-6.66Q106.75-11.33 109.31-19.01L109.31-19.01L109.31-19.01Q111.87-26.62 115.71-32.45L115.71-32.45L115.71-32.45Q113.86-32.64 111.94-32.64L111.94-32.64L111.94-32.64Q107.97-32.64 107.33-31.17Z" fill="url(#editing-outline-gradient)"></path></g></g><style>text {
  font-size: 64px;
  font-family: Arial Black;
  dominant-baseline: central;
  text-anchor: middle;
}</style></svg>